<svg host="65bd71144e" xmlns="http://www.w3.org/2000/svg" style="background: transparent; background-color: transparent; color-scheme: light dark;" xmlns:xlink="http://www.w3.org/1999/xlink" version="1.1" width="648px" height="105px" viewBox="0 0 648 105" id="ge-svg-W6mKFrJwD3NFjrYClnHc" content="&lt;mxfile&gt;&lt;diagram name=&quot;Page-1&quot; id=&quot;uRsbNJlbmn7kHtd-Khzg&quot;&gt;7VltV9owGP01fLSnSV+Aj4qic049gx23TzuhjW22tOnSIGW/fkmTQkthOAWcbniOJ7nNW597b54EOs4gKc45yuIPLMS0A+2w6DinHQh9z5X/FTDXgOv3NBBxEmoILIER+YkNaBt0SkKcNxoKxqggWRMMWJriQDQwxDmbNZvdM9qcNUMRbgGjANE2ekdCEWu059lL/AKTKK5mBrZ5kqCqsQHyGIVsVoOcs44z4IwJXUqKAaYqdlVcdL/hhqeLhXGcisd0mI+T5Oay+HR9TO7w5OfVjUgHR7A9ihk4F/MqBhkjqSjj6J10vNOOc4LyTAf7nhRYjn8Si4TKKlDPKIlSWQ7kiJhLYPHitqyEKI9Vj7JyTygdMMp4OY8zHPrHtsJzwdl3XD1JWYr1MJlaUFJESmmWnGeCJuhrQNk0tDib6tlkIQ0XM+h3eUB0at6lA30q1DrIgyxGomyjoQlfRWQw17T7R7uOPl6BTY3LIGMucFHTkJHhOWYJFnwum8Q1p3hdy+vXP2ajmC1d5nmW0acZFva7um42E8c13kLG5dFirqURZMF44Q984fz3xetT6Iv5Am5qfCBfuC1fgD35wn2ML1YVmUvh55bAQWwFLMmMIGvWKI2E+dkD1n4CbQ/Y5WeTB1SMiUzaV2iC6S3LiSBMeW3ChGBJrcGxMaFg2TpLbjHJ4Ord2fUYPI1Xu82j3WARVCeFBYuO1dsTj95/HsdwTzx27VUe3V3w+G1Ghtmle/4eXfS/FAifOOMfR4Y0HLZOsW1i2ZQHeLu3awJQw45M1TDUjCzjImYRSyVjTDFRMv4NCzE3J3k0FaypkVwgLo7VyVwRRlGek6CCh4RWzeTq+fyzmsay5R3CAF9KwO15FXBamJXo2rxeu8WcyCgrQdRkIOeJsNh+JK7JBYsYHGEZxuEGfXBMkSAPTQrWcW263iqf1I81K4Lxu1a17Vej6GWbjiuiWazk6TqCO9QR/Jt01CZT8Qg1nXAvdHqr/vf7FgAHpdPZIZ3OQehc+r3p9Sc5/Y+0sXVD8B5zWNbbw5HaKjYfBp8htWdlCf8x2V4mQdHkZBYTgUcZKuUxk0eATWm7nuMN1ErJq5k7IWFI29JpxRrIBCD/VHgd+0kZ22lnbL+ZsRf3yMqxYH8Zu/uKuVije0MPNPTs7Bq0nTTXOxxpvTdGWh9awO9Z0JbMqW9oh9A9KHeeB6sr7IK9nVx21rLXf7vsgcNz53dXfbc/5oD9NqkDL0MdAP2W7fZ15gC/OXK+dupeZM+U9whr3ReDz2BSVpe/P+m7x/JHPOfsFw==&lt;/diagram&gt;&lt;/mxfile&gt;">
    <style type="text/css">
        @supports (color: light-dark(#000, #fff)) { #ge-svg-W6mKFrJwD3NFjrYClnHc { --ge-adaptive-bg: light-dark(#ffffff, var(--ge-dark-color, #121212)); } }
    </style>
    <defs/>
    <g>
        <g data-cell-id="0">
            <g data-cell-id="1">
                <g data-cell-id="yTmmOJxUNAiWebzLOtnC-2">
                    <g>
                        <path d="M 204.47 38.36 C 214.73 28.11 231.38 28.1 241.66 38.33 C 246.62 43.25 249.4 49.93 249.4 56.9 C 249.4 63.87 246.62 70.55 241.66 75.47 C 231.38 85.7 214.73 85.69 204.47 75.44 C 194.2 65.2 194.2 48.6 204.47 38.36 Z M 238.14 41.88 C 229.81 33.59 216.33 33.59 208.02 41.88 C 199.7 50.18 199.7 63.62 208.02 71.91 C 216.33 80.21 229.81 80.21 238.14 71.92 C 242.14 67.94 244.39 62.54 244.39 56.9 C 244.39 51.26 242.14 45.86 238.14 41.88 Z M 225.96 61.9 C 226.05 61.9 226.14 61.93 226.2 62 L 226.27 62.11 L 226.3 62.24 L 226.3 68.65 L 229.05 68.65 C 229.12 68.64 229.2 68.67 229.25 68.73 C 229.34 68.81 229.37 68.94 229.34 69.05 L 229.25 69.2 L 223.34 76.76 C 223.24 76.9 223.04 76.93 222.89 76.83 L 222.82 76.76 L 216.89 69.2 C 216.85 69.14 216.82 69.07 216.82 68.99 C 216.82 68.9 216.85 68.81 216.91 68.75 L 217.02 68.67 L 217.15 68.65 L 219.74 68.65 L 219.74 62.24 C 219.74 62.1 219.82 61.98 219.93 61.93 L 220.06 61.9 Z M 236.01 50.65 C 236.15 50.65 236.27 50.74 236.33 50.86 L 236.35 50.99 L 236.35 53.58 L 242.8 53.58 C 242.94 53.58 243.06 53.66 243.11 53.77 L 243.13 53.9 L 243.13 59.81 L 243.11 59.93 C 243.07 60.01 243.01 60.08 242.93 60.11 L 242.8 60.14 L 236.35 60.14 L 236.35 62.84 C 236.36 62.92 236.33 63 236.27 63.05 C 236.19 63.14 236.06 63.16 235.95 63.14 L 235.8 63.05 L 228.19 57.13 L 228.11 56.98 C 228.09 56.91 228.1 56.83 228.13 56.76 L 228.19 56.67 L 235.8 50.73 C 235.85 50.68 235.93 50.65 236.01 50.65 Z M 210.36 50.74 L 217.97 56.64 L 218.06 56.79 C 218.08 56.87 218.07 56.94 218.04 57.01 L 217.97 57.11 L 210.36 63.07 C 210.31 63.12 210.23 63.15 210.15 63.15 C 210.06 63.15 209.98 63.11 209.91 63.05 L 209.84 62.94 L 209.82 62.81 L 209.82 60.21 L 203.38 60.21 C 203.24 60.21 203.11 60.12 203.06 60 L 203.03 59.87 L 203.03 53.87 C 203.03 53.78 203.07 53.7 203.13 53.64 L 203.25 53.57 L 203.38 53.55 L 209.89 53.55 L 209.89 50.95 C 209.87 50.88 209.87 50.8 209.89 50.74 L 210.04 50.65 L 210.21 50.65 Z M 223.25 36.94 L 223.35 37.01 L 229.27 44.59 C 229.38 44.73 229.37 44.92 229.25 45.04 L 229.14 45.11 L 229.01 45.14 L 226.41 45.14 L 226.41 51.56 C 226.41 51.7 226.33 51.82 226.21 51.87 L 226.07 51.9 L 220.09 51.9 C 220 51.9 219.91 51.87 219.85 51.8 L 219.78 51.69 L 219.76 51.56 L 219.76 45.14 L 217.12 45.14 C 217.05 45.13 216.97 45.11 216.92 45.06 C 216.85 45 216.82 44.91 216.82 44.83 L 216.84 44.7 L 216.92 44.59 L 222.88 37.01 L 223.03 36.92 C 223.1 36.9 223.18 36.91 223.25 36.94 Z" fill="#ff6a00" stroke="none" pointer-events="all" style="fill: light-dark(rgb(255, 106, 0), rgb(233, 105, 14));"/>
                    </g>
                    <g>
                        <g>
                            <switch>
                                <foreignObject style="overflow: visible; text-align: left;" pointer-events="none" width="100%" height="100%" requiredFeatures="http://www.w3.org/TR/SVG11/feature#Extensibility">
                                    <div xmlns="http://www.w3.org/1999/xhtml" style="display: flex; align-items: unsafe center; justify-content: unsafe center; width: 1px; height: 1px; padding-top: 57px; margin-left: 222px;">
                                        <div style="box-sizing: border-box; font-size: 0; text-align: center; color: #000000; ">
                                            <div style="display: inline-block; font-size: 12px; font-family: Helvetica; color: light-dark(#000000, #ffffff); line-height: 1.2; pointer-events: all; white-space: nowrap; ">
                                                <div>
                                                    <br/>
                                                </div>
                                                <div>
                                                    <br/>
                                                </div>
                                                <div>
                                                    <br/>
                                                </div>
                                                <div>
                                                    <br/>
                                                </div>
                                                <div>
                                                    <br/>
                                                </div>
                                                <div>
                                                    SRL1
                                                </div>
                                            </div>
                                        </div>
                                    </div>
                                </foreignObject>
                                <text x="222" y="25" fill="#000000" font-family="Helvetica" font-size="12px" text-anchor="middle" style="fill: light-dark(rgb(0, 0, 0), rgb(255, 255, 255));">
                                    <tspan x="222" y="25"></tspan>
                                    <tspan x="222" y="39"></tspan>
                                    <tspan x="222" y="53"></tspan>
                                    <tspan x="222" y="67"></tspan>
                                    <tspan x="222" y="81"></tspan>
                                    <tspan x="222" y="95">
                                        SRL1
                                    </tspan>
                                </text>
                            </switch>
                        </g>
                    </g>
                </g>
                <g data-cell-id="yTmmOJxUNAiWebzLOtnC-3">
                    <g>
                        <path d="M 404.47 39.36 C 414.73 29.11 431.38 29.1 441.66 39.33 C 446.62 44.25 449.4 50.93 449.4 57.9 C 449.4 64.87 446.62 71.55 441.66 76.47 C 431.38 86.7 414.73 86.69 404.47 76.44 C 394.2 66.2 394.2 49.6 404.47 39.36 Z M 438.14 42.88 C 429.81 34.59 416.33 34.59 408.02 42.88 C 399.7 51.18 399.7 64.62 408.02 72.91 C 416.33 81.21 429.81 81.21 438.14 72.92 C 442.14 68.94 444.39 63.54 444.39 57.9 C 444.39 52.26 442.14 46.86 438.14 42.88 Z M 425.96 62.9 C 426.05 62.9 426.14 62.93 426.2 63 L 426.27 63.11 L 426.3 63.24 L 426.3 69.65 L 429.05 69.65 C 429.12 69.64 429.2 69.67 429.25 69.73 C 429.34 69.81 429.37 69.94 429.34 70.05 L 429.25 70.2 L 423.34 77.76 C 423.24 77.9 423.04 77.93 422.89 77.83 L 422.82 77.76 L 416.89 70.2 C 416.85 70.14 416.82 70.07 416.82 69.99 C 416.82 69.9 416.85 69.81 416.91 69.75 L 417.02 69.67 L 417.15 69.65 L 419.74 69.65 L 419.74 63.24 C 419.74 63.1 419.82 62.98 419.93 62.93 L 420.06 62.9 Z M 436.01 51.65 C 436.15 51.65 436.27 51.74 436.33 51.86 L 436.35 51.99 L 436.35 54.58 L 442.8 54.58 C 442.94 54.58 443.06 54.66 443.11 54.77 L 443.13 54.9 L 443.13 60.81 L 443.11 60.93 C 443.07 61.01 443.01 61.08 442.93 61.11 L 442.8 61.14 L 436.35 61.14 L 436.35 63.84 C 436.36 63.92 436.33 64 436.27 64.05 C 436.19 64.14 436.06 64.16 435.95 64.14 L 435.8 64.05 L 428.19 58.13 L 428.11 57.98 C 428.09 57.91 428.1 57.83 428.13 57.76 L 428.19 57.67 L 435.8 51.73 C 435.85 51.68 435.93 51.65 436.01 51.65 Z M 410.36 51.74 L 417.97 57.64 L 418.06 57.79 C 418.08 57.87 418.07 57.94 418.04 58.01 L 417.97 58.11 L 410.36 64.07 C 410.31 64.12 410.23 64.15 410.15 64.15 C 410.06 64.15 409.98 64.11 409.91 64.05 L 409.84 63.94 L 409.82 63.81 L 409.82 61.21 L 403.38 61.21 C 403.24 61.21 403.11 61.12 403.06 61 L 403.03 60.87 L 403.03 54.87 C 403.03 54.78 403.07 54.7 403.13 54.64 L 403.25 54.57 L 403.38 54.55 L 409.89 54.55 L 409.89 51.95 C 409.87 51.88 409.87 51.8 409.89 51.74 L 410.04 51.65 L 410.21 51.65 Z M 423.25 37.94 L 423.35 38.01 L 429.27 45.59 C 429.38 45.73 429.37 45.92 429.25 46.04 L 429.14 46.11 L 429.01 46.14 L 426.41 46.14 L 426.41 52.56 C 426.41 52.7 426.33 52.82 426.21 52.87 L 426.07 52.9 L 420.09 52.9 C 420 52.9 419.91 52.87 419.85 52.8 L 419.78 52.69 L 419.76 52.56 L 419.76 46.14 L 417.12 46.14 C 417.05 46.13 416.97 46.11 416.92 46.06 C 416.85 46 416.82 45.91 416.82 45.83 L 416.84 45.7 L 416.92 45.59 L 422.88 38.01 L 423.03 37.92 C 423.1 37.9 423.18 37.91 423.25 37.94 Z" fill="#ff6a00" stroke="none" pointer-events="all" style="fill: light-dark(rgb(255, 106, 0), rgb(233, 105, 14));"/>
                    </g>
                    <g>
                        <g>
                            <switch>
                                <foreignObject style="overflow: visible; text-align: left;" pointer-events="none" width="100%" height="100%" requiredFeatures="http://www.w3.org/TR/SVG11/feature#Extensibility">
                                    <div xmlns="http://www.w3.org/1999/xhtml" style="display: flex; align-items: unsafe center; justify-content: unsafe center; width: 1px; height: 1px; padding-top: 58px; margin-left: 422px;">
                                        <div style="box-sizing: border-box; font-size: 0; text-align: center; color: #000000; ">
                                            <div style="display: inline-block; font-size: 12px; font-family: Helvetica; color: light-dark(#000000, #ffffff); line-height: 1.2; pointer-events: all; white-space: nowrap; ">
                                                <div>
                                                    <br/>
                                                </div>
                                                <div>
                                                    <br/>
                                                </div>
                                                <div>
                                                    <br/>
                                                </div>
                                                <div>
                                                    <br/>
                                                </div>
                                                <div>
                                                    <br/>
                                                </div>
                                                <div>
                                                    SRL2
                                                </div>
                                            </div>
                                        </div>
                                    </div>
                                </foreignObject>
                                <text x="422" y="26" fill="#000000" font-family="Helvetica" font-size="12px" text-anchor="middle" style="fill: light-dark(rgb(0, 0, 0), rgb(255, 255, 255));">
                                    <tspan x="422" y="26"></tspan>
                                    <tspan x="422" y="40"></tspan>
                                    <tspan x="422" y="54"></tspan>
                                    <tspan x="422" y="68"></tspan>
                                    <tspan x="422" y="82"></tspan>
                                    <tspan x="422" y="96">
                                        SRL2
                                    </tspan>
                                </text>
                            </switch>
                        </g>
                    </g>
                </g>
                <g data-cell-id="yTmmOJxUNAiWebzLOtnC-4">
                    <g>
                        <rect x="17.2" y="31.9" width="50" height="50" fill="none" stroke="none" pointer-events="all"/>
                        <path d="M 60.16 73.62 L 60.16 70.24 L 51.88 70.24 L 51.88 68.31 L 65.93 68.31 C 66.44 68.31 66.85 67.94 66.85 67.48 L 66.85 32.74 C 66.85 32.27 66.44 31.9 65.93 31.9 L 18.29 31.9 C 17.79 31.9 17.38 32.27 17.38 32.74 L 17.38 67.48 C 17.38 67.94 17.79 68.31 18.29 68.31 L 32.51 68.31 L 32.51 70.24 L 24.24 70.24 L 24.24 73.61 L 17.2 78.2 L 17.2 81.9 L 67.2 81.9 L 67.2 78.2 L 60.16 73.62 Z M 20.72 65.03 L 20.72 34.92 C 20.72 34.52 21.07 34.2 21.5 34.2 L 62.54 34.2 C 62.97 34.2 63.32 34.52 63.32 34.92 L 63.32 65.03 C 63.32 65.43 62.97 65.75 62.54 65.75 L 21.51 65.75 C 21.07 65.75 20.72 65.42 20.72 65.03 Z M 19.66 78.04 L 26 73.94 L 58.4 73.94 L 64.73 78.04 L 19.66 78.04 Z" fill="#000000" stroke="none" pointer-events="all" style="fill: light-dark(rgb(0, 0, 0), rgb(237, 237, 237));"/>
                    </g>
                    <g>
                        <g>
                            <switch>
                                <foreignObject style="overflow: visible; text-align: left;" pointer-events="none" width="100%" height="100%" requiredFeatures="http://www.w3.org/TR/SVG11/feature#Extensibility">
                                    <div xmlns="http://www.w3.org/1999/xhtml" style="display: flex; align-items: unsafe flex-start; justify-content: unsafe center; width: 1px; height: 1px; padding-top: 89px; margin-left: 42px;">
                                        <div style="box-sizing: border-box; font-size: 0; text-align: center; color: #000000; ">
                                            <div style="display: inline-block; font-size: 12px; font-family: Helvetica; color: light-dark(#000000, #ffffff); line-height: 1.2; pointer-events: all; white-space: nowrap; ">
                                                CLIENT1
                                            </div>
                                        </div>
                                    </div>
                                </foreignObject>
                                <text x="42" y="101" fill="#000000" font-family="Helvetica" font-size="12px" text-anchor="middle" style="fill: light-dark(rgb(0, 0, 0), rgb(255, 255, 255));">
                                    CLIENT1
                                </text>
                            </switch>
                        </g>
                    </g>
                </g>
                <g data-cell-id="yTmmOJxUNAiWebzLOtnC-5">
                    <g>
                        <rect x="597.2" y="32.9" width="50" height="50" fill="none" stroke="none" pointer-events="all"/>
                        <path d="M 640.16 74.62 L 640.16 71.24 L 631.88 71.24 L 631.88 69.31 L 645.93 69.31 C 646.44 69.31 646.85 68.94 646.85 68.48 L 646.85 33.74 C 646.85 33.27 646.44 32.9 645.93 32.9 L 598.29 32.9 C 597.79 32.9 597.38 33.27 597.38 33.74 L 597.38 68.48 C 597.38 68.94 597.79 69.31 598.29 69.31 L 612.51 69.31 L 612.51 71.24 L 604.24 71.24 L 604.24 74.61 L 597.2 79.2 L 597.2 82.9 L 647.2 82.9 L 647.2 79.2 L 640.16 74.62 Z M 600.72 66.03 L 600.72 35.92 C 600.72 35.52 601.07 35.2 601.5 35.2 L 642.54 35.2 C 642.97 35.2 643.32 35.52 643.32 35.92 L 643.32 66.03 C 643.32 66.43 642.97 66.75 642.54 66.75 L 601.51 66.75 C 601.07 66.75 600.72 66.42 600.72 66.03 Z M 599.66 79.04 L 606 74.94 L 638.4 74.94 L 644.73 79.04 L 599.66 79.04 Z" fill="#000000" stroke="none" pointer-events="all" style="fill: light-dark(rgb(0, 0, 0), rgb(237, 237, 237));"/>
                    </g>
                    <g>
                        <g>
                            <switch>
                                <foreignObject style="overflow: visible; text-align: left;" pointer-events="none" width="100%" height="100%" requiredFeatures="http://www.w3.org/TR/SVG11/feature#Extensibility">
                                    <div xmlns="http://www.w3.org/1999/xhtml" style="display: flex; align-items: unsafe flex-start; justify-content: unsafe center; width: 1px; height: 1px; padding-top: 90px; margin-left: 622px;">
                                        <div style="box-sizing: border-box; font-size: 0; text-align: center; color: #000000; ">
                                            <div style="display: inline-block; font-size: 12px; font-family: Helvetica; color: light-dark(#000000, #ffffff); line-height: 1.2; pointer-events: all; white-space: nowrap; ">
                                                CLIENT2
                                            </div>
                                        </div>
                                    </div>
                                </foreignObject>
                                <text x="622" y="102" fill="#000000" font-family="Helvetica" font-size="12px" text-anchor="middle" style="fill: light-dark(rgb(0, 0, 0), rgb(255, 255, 255));">
                                    CLIENT2
                                </text>
                            </switch>
                        </g>
                    </g>
                </g>
                <g data-cell-id="jwiFpJ4GKaH9YxaeB3Tq-1">
                    <g transform="translate(0.5,0.5)">
                        <path d="M 73.57 56.73 L 190.81 56.07" fill="none" stroke="#000000" stroke-miterlimit="10" pointer-events="stroke" style="stroke: light-dark(rgb(0, 0, 0), rgb(255, 255, 255));"/>
                        <path d="M 68.32 56.75 L 75.3 53.22 L 73.57 56.73 L 75.34 60.22 Z" fill="#000000" stroke="#000000" stroke-miterlimit="10" pointer-events="all" style="fill: light-dark(rgb(0, 0, 0), rgb(255, 255, 255)); stroke: light-dark(rgb(0, 0, 0), rgb(255, 255, 255));"/>
                        <path d="M 196.06 56.04 L 189.08 59.58 L 190.81 56.07 L 189.04 52.58 Z" fill="#000000" stroke="#000000" stroke-miterlimit="10" pointer-events="all" style="fill: light-dark(rgb(0, 0, 0), rgb(255, 255, 255)); stroke: light-dark(rgb(0, 0, 0), rgb(255, 255, 255));"/>
                    </g>
                    <g>
                        <g>
                            <switch>
                                <foreignObject style="overflow: visible; text-align: left;" pointer-events="none" width="100%" height="100%" requiredFeatures="http://www.w3.org/TR/SVG11/feature#Extensibility">
                                    <div xmlns="http://www.w3.org/1999/xhtml" style="display: flex; align-items: unsafe center; justify-content: unsafe center; width: 1px; height: 1px; padding-top: 56px; margin-left: 132px;">
                                        <div style="box-sizing: border-box; font-size: 0; text-align: center; color: #000000; background-color: #ffffff; ">
                                            <div style="display: inline-block; font-size: 11px; font-family: Helvetica; color: light-dark(#000000, #ffffff); line-height: 1.2; pointer-events: all; background-color: var(--ge-adaptive-bg, #ffffff); white-space: nowrap; ">
                                                eth1-e1/1
                                            </div>
                                        </div>
                                    </div>
                                </foreignObject>
                                <text x="132" y="60" fill="#000000" font-family="Helvetica" font-size="11px" text-anchor="middle" style="fill: light-dark(rgb(0, 0, 0), rgb(255, 255, 255));">
                                    eth1-e1/1
                                </text>
                            </switch>
                        </g>
                    </g>
                </g>
                <g data-cell-id="jwiFpJ4GKaH9YxaeB3Tq-2">
                    <g transform="translate(0.5,0.5)">
                        <path d="M 255.77 56.96 L 390.83 57.2" fill="none" stroke="#000000" stroke-miterlimit="10" pointer-events="stroke" style="stroke: light-dark(rgb(0, 0, 0), rgb(255, 255, 255));"/>
                        <path d="M 250.52 56.95 L 257.52 53.46 L 255.77 56.96 L 257.51 60.46 Z" fill="#000000" stroke="#000000" stroke-miterlimit="10" pointer-events="all" style="fill: light-dark(rgb(0, 0, 0), rgb(255, 255, 255)); stroke: light-dark(rgb(0, 0, 0), rgb(255, 255, 255));"/>
                        <path d="M 396.08 57.21 L 389.08 60.7 L 390.83 57.2 L 389.09 53.7 Z" fill="#000000" stroke="#000000" stroke-miterlimit="10" pointer-events="all" style="fill: light-dark(rgb(0, 0, 0), rgb(255, 255, 255)); stroke: light-dark(rgb(0, 0, 0), rgb(255, 255, 255));"/>
                    </g>
                    <g>
                        <g>
                            <switch>
                                <foreignObject style="overflow: visible; text-align: left;" pointer-events="none" width="100%" height="100%" requiredFeatures="http://www.w3.org/TR/SVG11/feature#Extensibility">
                                    <div xmlns="http://www.w3.org/1999/xhtml" style="display: flex; align-items: unsafe center; justify-content: unsafe center; width: 1px; height: 1px; padding-top: 57px; margin-left: 323px;">
                                        <div style="box-sizing: border-box; font-size: 0; text-align: center; color: #000000; background-color: #ffffff; ">
                                            <div style="display: inline-block; font-size: 11px; font-family: Helvetica; color: light-dark(#000000, #ffffff); line-height: 1.2; pointer-events: all; background-color: var(--ge-adaptive-bg, #ffffff); white-space: nowrap; ">
                                                e1/2-e1/2
                                            </div>
                                        </div>
                                    </div>
                                </foreignObject>
                                <text x="323" y="60" fill="#000000" font-family="Helvetica" font-size="11px" text-anchor="middle" style="fill: light-dark(rgb(0, 0, 0), rgb(255, 255, 255));">
                                    e1/2-e1/2
                                </text>
                            </switch>
                        </g>
                    </g>
                </g>
                <g data-cell-id="jwiFpJ4GKaH9YxaeB3Tq-3">
                    <g transform="translate(0.5,0.5)">
                        <path d="M 455.77 57.9 L 590.83 57.9" fill="none" stroke="#000000" stroke-miterlimit="10" pointer-events="stroke" style="stroke: light-dark(rgb(0, 0, 0), rgb(255, 255, 255));"/>
                        <path d="M 450.52 57.9 L 457.52 54.4 L 455.77 57.9 L 457.52 61.4 Z" fill="#000000" stroke="#000000" stroke-miterlimit="10" pointer-events="all" style="fill: light-dark(rgb(0, 0, 0), rgb(255, 255, 255)); stroke: light-dark(rgb(0, 0, 0), rgb(255, 255, 255));"/>
                        <path d="M 596.08 57.9 L 589.08 61.4 L 590.83 57.9 L 589.08 54.4 Z" fill="#000000" stroke="#000000" stroke-miterlimit="10" pointer-events="all" style="fill: light-dark(rgb(0, 0, 0), rgb(255, 255, 255)); stroke: light-dark(rgb(0, 0, 0), rgb(255, 255, 255));"/>
                    </g>
                    <g>
                        <g>
                            <switch>
                                <foreignObject style="overflow: visible; text-align: left;" pointer-events="none" width="100%" height="100%" requiredFeatures="http://www.w3.org/TR/SVG11/feature#Extensibility">
                                    <div xmlns="http://www.w3.org/1999/xhtml" style="display: flex; align-items: unsafe center; justify-content: unsafe center; width: 1px; height: 1px; padding-top: 58px; margin-left: 523px;">
                                        <div style="box-sizing: border-box; font-size: 0; text-align: center; color: #000000; background-color: #ffffff; ">
                                            <div style="display: inline-block; font-size: 11px; font-family: Helvetica; color: light-dark(#000000, #ffffff); line-height: 1.2; pointer-events: all; background-color: var(--ge-adaptive-bg, #ffffff); white-space: nowrap; ">
                                                <div>
                                                    e1/1-eth1
                                                </div>
                                            </div>
                                        </div>
                                    </div>
                                </foreignObject>
                                <text x="523" y="61" fill="#000000" font-family="Helvetica" font-size="11px" text-anchor="middle" style="fill: light-dark(rgb(0, 0, 0), rgb(255, 255, 255));">
                                    e1/1-eth1
                                </text>
                            </switch>
                        </g>
                    </g>
                </g>
                <g data-cell-id="jwiFpJ4GKaH9YxaeB3Tq-6">
                    <g>
                        <rect x="237.2" y="2.9" width="60" height="30" fill="none" stroke="none" pointer-events="all"/>
                    </g>
                    <g>
                        <g>
                            <switch>
                                <foreignObject style="overflow: visible; text-align: left;" pointer-events="none" width="100%" height="100%" requiredFeatures="http://www.w3.org/TR/SVG11/feature#Extensibility">
                                    <div xmlns="http://www.w3.org/1999/xhtml" style="display: flex; align-items: unsafe center; justify-content: unsafe center; width: 58px; height: 1px; padding-top: 18px; margin-left: 238px;">
                                        <div style="box-sizing: border-box; font-size: 0; text-align: center; color: #000000; ">
                                            <div style="display: inline-block; font-size: 12px; font-family: Helvetica; color: light-dark(#000000, #ffffff); line-height: 1.2; pointer-events: all; white-space: normal; word-wrap: normal; ">
                                                10.0.0.1/30
                                            </div>
                                        </div>
                                    </div>
                                </foreignObject>
                                <text x="267" y="21" fill="#000000" font-family="Helvetica" font-size="12px" text-anchor="middle" style="fill: light-dark(rgb(0, 0, 0), rgb(255, 255, 255));">
                                    10.0.0.1/30
                                </text>
                            </switch>
                        </g>
                    </g>
                </g>
                <g data-cell-id="jwiFpJ4GKaH9YxaeB3Tq-7">
                    <g>
                        <rect x="347.2" y="2.9" width="60" height="30" fill="none" stroke="none" pointer-events="all"/>
                    </g>
                    <g>
                        <g>
                            <switch>
                                <foreignObject style="overflow: visible; text-align: left;" pointer-events="none" width="100%" height="100%" requiredFeatures="http://www.w3.org/TR/SVG11/feature#Extensibility">
                                    <div xmlns="http://www.w3.org/1999/xhtml" style="display: flex; align-items: unsafe center; justify-content: unsafe center; width: 58px; height: 1px; padding-top: 18px; margin-left: 348px;">
                                        <div style="box-sizing: border-box; font-size: 0; text-align: center; color: #000000; ">
                                            <div style="display: inline-block; font-size: 12px; font-family: Helvetica; color: light-dark(#000000, #ffffff); line-height: 1.2; pointer-events: all; white-space: normal; word-wrap: normal; ">
                                                <div>
                                                    10.0.0.2/30
                                                </div>
                                            </div>
                                        </div>
                                    </div>
                                </foreignObject>
                                <text x="377" y="21" fill="#000000" font-family="Helvetica" font-size="12px" text-anchor="middle" style="fill: light-dark(rgb(0, 0, 0), rgb(255, 255, 255));">
                                    10.0.0.2/30
                                </text>
                            </switch>
                        </g>
                    </g>
                </g>
                <g data-cell-id="jwiFpJ4GKaH9YxaeB3Tq-8">
                    <g>
                        <rect x="449.4" y="1.9" width="60" height="30" fill="none" stroke="none" pointer-events="all"/>
                    </g>
                    <g>
                        <g>
                            <switch>
                                <foreignObject style="overflow: visible; text-align: left;" pointer-events="none" width="100%" height="100%" requiredFeatures="http://www.w3.org/TR/SVG11/feature#Extensibility">
                                    <div xmlns="http://www.w3.org/1999/xhtml" style="display: flex; align-items: unsafe center; justify-content: unsafe center; width: 58px; height: 1px; padding-top: 17px; margin-left: 450px;">
                                        <div style="box-sizing: border-box; font-size: 0; text-align: center; color: #000000; ">
                                            <div style="display: inline-block; font-size: 12px; font-family: Helvetica; color: light-dark(#000000, #ffffff); line-height: 1.2; pointer-events: all; white-space: normal; word-wrap: normal; ">
                                                <div>
                                                    192.168.200.254/24
                                                </div>
                                            </div>
                                        </div>
                                    </div>
                                </foreignObject>
                                <text x="479" y="20" fill="#000000" font-family="Helvetica" font-size="12px" text-anchor="middle" style="fill: light-dark(rgb(0, 0, 0), rgb(255, 255, 255));">
                                    192.168.200.254/24
                                </text>
                            </switch>
                        </g>
                    </g>
                </g>
                <g data-cell-id="jwiFpJ4GKaH9YxaeB3Tq-9">
                    <g>
                        <rect x="567.2" y="1.9" width="60" height="30" fill="none" stroke="none" pointer-events="all"/>
                    </g>
                    <g>
                        <g>
                            <switch>
                                <foreignObject style="overflow: visible; text-align: left;" pointer-events="none" width="100%" height="100%" requiredFeatures="http://www.w3.org/TR/SVG11/feature#Extensibility">
                                    <div xmlns="http://www.w3.org/1999/xhtml" style="display: flex; align-items: unsafe center; justify-content: unsafe center; width: 58px; height: 1px; padding-top: 17px; margin-left: 568px;">
                                        <div style="box-sizing: border-box; font-size: 0; text-align: center; color: #000000; ">
                                            <div style="display: inline-block; font-size: 12px; font-family: Helvetica; color: light-dark(#000000, #ffffff); line-height: 1.2; pointer-events: all; white-space: normal; word-wrap: normal; ">
                                                <div>
                                                    192.168.200.1/24
                                                </div>
                                            </div>
                                        </div>
                                    </div>
                                </foreignObject>
                                <text x="597" y="20" fill="#000000" font-family="Helvetica" font-size="12px" text-anchor="middle" style="fill: light-dark(rgb(0, 0, 0), rgb(255, 255, 255));">
                                    192.168.200.1/24
                                </text>
                            </switch>
                        </g>
                    </g>
                </g>
                <g data-cell-id="jwiFpJ4GKaH9YxaeB3Tq-10">
                    <g>
                        <rect x="16.4" y="-0.9" width="60" height="30" fill="none" stroke="none" pointer-events="all"/>
                    </g>
                    <g>
                        <g>
                            <switch>
                                <foreignObject style="overflow: visible; text-align: left;" pointer-events="none" width="100%" height="100%" requiredFeatures="http://www.w3.org/TR/SVG11/feature#Extensibility">
                                    <div xmlns="http://www.w3.org/1999/xhtml" style="display: flex; align-items: unsafe center; justify-content: unsafe center; width: 58px; height: 1px; padding-top: 14px; margin-left: 17px;">
                                        <div style="box-sizing: border-box; font-size: 0; text-align: center; color: #000000; ">
                                            <div style="display: inline-block; font-size: 12px; font-family: Helvetica; color: light-dark(#000000, #ffffff); line-height: 1.2; pointer-events: all; white-space: normal; word-wrap: normal; ">
                                                <div>
                                                    192.168.100.1/24
                                                </div>
                                            </div>
                                        </div>
                                    </div>
                                </foreignObject>
                                <text x="46" y="18" fill="#000000" font-family="Helvetica" font-size="12px" text-anchor="middle" style="fill: light-dark(rgb(0, 0, 0), rgb(255, 255, 255));">
                                    192.168.100.1/24
                                </text>
                            </switch>
                        </g>
                    </g>
                </g>
                <g data-cell-id="jwiFpJ4GKaH9YxaeB3Tq-11">
                    <g>
                        <rect x="134.2" y="-0.9" width="60" height="30" fill="none" stroke="none" pointer-events="all"/>
                    </g>
                    <g>
                        <g>
                            <switch>
                                <foreignObject style="overflow: visible; text-align: left;" pointer-events="none" width="100%" height="100%" requiredFeatures="http://www.w3.org/TR/SVG11/feature#Extensibility">
                                    <div xmlns="http://www.w3.org/1999/xhtml" style="display: flex; align-items: unsafe center; justify-content: unsafe center; width: 58px; height: 1px; padding-top: 14px; margin-left: 135px;">
                                        <div style="box-sizing: border-box; font-size: 0; text-align: center; color: #000000; ">
                                            <div style="display: inline-block; font-size: 12px; font-family: Helvetica; color: light-dark(#000000, #ffffff); line-height: 1.2; pointer-events: all; white-space: normal; word-wrap: normal; ">
                                                <div>
                                                    192.168.100.254/24
                                                </div>
                                            </div>
                                        </div>
                                    </div>
                                </foreignObject>
                                <text x="164" y="18" fill="#000000" font-family="Helvetica" font-size="12px" text-anchor="middle" style="fill: light-dark(rgb(0, 0, 0), rgb(255, 255, 255));">
                                    192.168.100.254/24
                                </text>
                            </switch>
                        </g>
                    </g>
                </g>
            </g>
        </g>
    </g>
    <switch>
        <g requiredFeatures="http://www.w3.org/TR/SVG11/feature#Extensibility"/>
        <a transform="translate(0,-5)" xlink:href="https://www.drawio.com/doc/faq/svg-export-text-problems" target="_blank">
            <text text-anchor="middle" font-size="10px" x="50%" y="100%">
                Text is not SVG - cannot display
            </text>
        </a>
    </switch>
</svg>